G04 #@! TF.GenerationSoftware,KiCad,Pcbnew,5.0.2-bee76a0~70~ubuntu18.04.1*
G04 #@! TF.CreationDate,2018-12-19T18:46:12+01:00*
G04 #@! TF.ProjectId,skin_optoelectronics_carrier_test,736b696e-5f6f-4707-946f-656c65637472,rev?*
G04 #@! TF.SameCoordinates,Original*
G04 #@! TF.FileFunction,Legend,Top*
G04 #@! TF.FilePolarity,Positive*
%FSLAX46Y46*%
G04 Gerber Fmt 4.6, Leading zero omitted, Abs format (unit mm)*
G04 Created by KiCad (PCBNEW 5.0.2-bee76a0~70~ubuntu18.04.1) date Wed 19 Dec 2018 18:46:12 CET*
%MOMM*%
%LPD*%
G01*
G04 APERTURE LIST*
%ADD10C,0.150000*%
%ADD11C,0.120000*%
G04 APERTURE END LIST*
D10*
G04 #@! TO.C,D1*
X140700000Y-85250000D02*
X140700000Y-86150000D01*
X140700000Y-86150000D02*
X141600000Y-86150000D01*
X141850000Y-84350000D02*
G75*
G02X144150000Y-84350000I1150000J-400000D01*
G01*
G04 #@! TO.C,D2*
X185850000Y-84350000D02*
G75*
G02X188150000Y-84350000I1150000J-400000D01*
G01*
X184700000Y-86150000D02*
X185600000Y-86150000D01*
X184700000Y-85250000D02*
X184700000Y-86150000D01*
G04 #@! TO.C,D3*
X162700000Y-85250000D02*
X162700000Y-86150000D01*
X162700000Y-86150000D02*
X163600000Y-86150000D01*
X163850000Y-84350000D02*
G75*
G02X166150000Y-84350000I1150000J-400000D01*
G01*
D11*
G04 #@! TO.C,J1*
X133450000Y-86250000D02*
G75*
G03X133450000Y-86250000I-950000J0D01*
G01*
G04 #@! TO.C,J3*
X149450000Y-86250000D02*
G75*
G03X149450000Y-86250000I-950000J0D01*
G01*
G04 #@! TO.C,J4*
X193450000Y-86250000D02*
G75*
G03X193450000Y-86250000I-950000J0D01*
G01*
G04 #@! TO.C,J5*
X171450000Y-86250000D02*
G75*
G03X171450000Y-86250000I-950000J0D01*
G01*
G04 #@! TO.C,J6*
X160450000Y-86250000D02*
G75*
G03X160450000Y-86250000I-950000J0D01*
G01*
G04 #@! TO.C,J7*
X204450000Y-86250000D02*
G75*
G03X204450000Y-86250000I-950000J0D01*
G01*
G04 #@! TO.C,J8*
X182450000Y-86250000D02*
G75*
G03X182450000Y-86250000I-950000J0D01*
G01*
D10*
G04 #@! TO.C,Q1*
X151700000Y-85250000D02*
X151700000Y-86150000D01*
X151700000Y-86150000D02*
X152600000Y-86150000D01*
X152850000Y-84350000D02*
G75*
G02X155150000Y-84350000I1150000J-400000D01*
G01*
G04 #@! TO.C,Q2*
X196850000Y-84350000D02*
G75*
G02X199150000Y-84350000I1150000J-400000D01*
G01*
X195700000Y-86150000D02*
X196600000Y-86150000D01*
X195700000Y-85250000D02*
X195700000Y-86150000D01*
G04 #@! TO.C,Q3*
X173700000Y-85250000D02*
X173700000Y-86150000D01*
X173700000Y-86150000D02*
X174600000Y-86150000D01*
X174850000Y-84350000D02*
G75*
G02X177150000Y-84350000I1150000J-400000D01*
G01*
G04 #@! TO.C,D1*
X142261904Y-88202380D02*
X142261904Y-87202380D01*
X142500000Y-87202380D01*
X142642857Y-87250000D01*
X142738095Y-87345238D01*
X142785714Y-87440476D01*
X142833333Y-87630952D01*
X142833333Y-87773809D01*
X142785714Y-87964285D01*
X142738095Y-88059523D01*
X142642857Y-88154761D01*
X142500000Y-88202380D01*
X142261904Y-88202380D01*
X143785714Y-88202380D02*
X143214285Y-88202380D01*
X143500000Y-88202380D02*
X143500000Y-87202380D01*
X143404761Y-87345238D01*
X143309523Y-87440476D01*
X143214285Y-87488095D01*
X140740476Y-84311904D02*
X140740476Y-83511904D01*
X141197619Y-84311904D02*
X140854761Y-83854761D01*
X141197619Y-83511904D02*
X140740476Y-83969047D01*
X144709523Y-84083333D02*
X145090476Y-84083333D01*
X144633333Y-84311904D02*
X144900000Y-83511904D01*
X145166666Y-84311904D01*
G04 #@! TO.C,D2*
X186261904Y-88202380D02*
X186261904Y-87202380D01*
X186500000Y-87202380D01*
X186642857Y-87250000D01*
X186738095Y-87345238D01*
X186785714Y-87440476D01*
X186833333Y-87630952D01*
X186833333Y-87773809D01*
X186785714Y-87964285D01*
X186738095Y-88059523D01*
X186642857Y-88154761D01*
X186500000Y-88202380D01*
X186261904Y-88202380D01*
X187214285Y-87297619D02*
X187261904Y-87250000D01*
X187357142Y-87202380D01*
X187595238Y-87202380D01*
X187690476Y-87250000D01*
X187738095Y-87297619D01*
X187785714Y-87392857D01*
X187785714Y-87488095D01*
X187738095Y-87630952D01*
X187166666Y-88202380D01*
X187785714Y-88202380D01*
X188709523Y-84083333D02*
X189090476Y-84083333D01*
X188633333Y-84311904D02*
X188900000Y-83511904D01*
X189166666Y-84311904D01*
X184740476Y-84311904D02*
X184740476Y-83511904D01*
X185197619Y-84311904D02*
X184854761Y-83854761D01*
X185197619Y-83511904D02*
X184740476Y-83969047D01*
G04 #@! TO.C,D3*
X164261904Y-88202380D02*
X164261904Y-87202380D01*
X164500000Y-87202380D01*
X164642857Y-87250000D01*
X164738095Y-87345238D01*
X164785714Y-87440476D01*
X164833333Y-87630952D01*
X164833333Y-87773809D01*
X164785714Y-87964285D01*
X164738095Y-88059523D01*
X164642857Y-88154761D01*
X164500000Y-88202380D01*
X164261904Y-88202380D01*
X165166666Y-87202380D02*
X165785714Y-87202380D01*
X165452380Y-87583333D01*
X165595238Y-87583333D01*
X165690476Y-87630952D01*
X165738095Y-87678571D01*
X165785714Y-87773809D01*
X165785714Y-88011904D01*
X165738095Y-88107142D01*
X165690476Y-88154761D01*
X165595238Y-88202380D01*
X165309523Y-88202380D01*
X165214285Y-88154761D01*
X165166666Y-88107142D01*
X162740476Y-84311904D02*
X162740476Y-83511904D01*
X163197619Y-84311904D02*
X162854761Y-83854761D01*
X163197619Y-83511904D02*
X162740476Y-83969047D01*
X166709523Y-84083333D02*
X167090476Y-84083333D01*
X166633333Y-84311904D02*
X166900000Y-83511904D01*
X167166666Y-84311904D01*
G04 #@! TO.C,J1*
X132166666Y-84054380D02*
X132166666Y-84768666D01*
X132119047Y-84911523D01*
X132023809Y-85006761D01*
X131880952Y-85054380D01*
X131785714Y-85054380D01*
X133166666Y-85054380D02*
X132595238Y-85054380D01*
X132880952Y-85054380D02*
X132880952Y-84054380D01*
X132785714Y-84197238D01*
X132690476Y-84292476D01*
X132595238Y-84340095D01*
G04 #@! TO.C,J3*
X148166666Y-84054380D02*
X148166666Y-84768666D01*
X148119047Y-84911523D01*
X148023809Y-85006761D01*
X147880952Y-85054380D01*
X147785714Y-85054380D01*
X148547619Y-84054380D02*
X149166666Y-84054380D01*
X148833333Y-84435333D01*
X148976190Y-84435333D01*
X149071428Y-84482952D01*
X149119047Y-84530571D01*
X149166666Y-84625809D01*
X149166666Y-84863904D01*
X149119047Y-84959142D01*
X149071428Y-85006761D01*
X148976190Y-85054380D01*
X148690476Y-85054380D01*
X148595238Y-85006761D01*
X148547619Y-84959142D01*
G04 #@! TO.C,J4*
X192166666Y-84054380D02*
X192166666Y-84768666D01*
X192119047Y-84911523D01*
X192023809Y-85006761D01*
X191880952Y-85054380D01*
X191785714Y-85054380D01*
X193071428Y-84387714D02*
X193071428Y-85054380D01*
X192833333Y-84006761D02*
X192595238Y-84721047D01*
X193214285Y-84721047D01*
G04 #@! TO.C,J5*
X170166666Y-84054380D02*
X170166666Y-84768666D01*
X170119047Y-84911523D01*
X170023809Y-85006761D01*
X169880952Y-85054380D01*
X169785714Y-85054380D01*
X171119047Y-84054380D02*
X170642857Y-84054380D01*
X170595238Y-84530571D01*
X170642857Y-84482952D01*
X170738095Y-84435333D01*
X170976190Y-84435333D01*
X171071428Y-84482952D01*
X171119047Y-84530571D01*
X171166666Y-84625809D01*
X171166666Y-84863904D01*
X171119047Y-84959142D01*
X171071428Y-85006761D01*
X170976190Y-85054380D01*
X170738095Y-85054380D01*
X170642857Y-85006761D01*
X170595238Y-84959142D01*
G04 #@! TO.C,J6*
X159166666Y-84054380D02*
X159166666Y-84768666D01*
X159119047Y-84911523D01*
X159023809Y-85006761D01*
X158880952Y-85054380D01*
X158785714Y-85054380D01*
X160071428Y-84054380D02*
X159880952Y-84054380D01*
X159785714Y-84102000D01*
X159738095Y-84149619D01*
X159642857Y-84292476D01*
X159595238Y-84482952D01*
X159595238Y-84863904D01*
X159642857Y-84959142D01*
X159690476Y-85006761D01*
X159785714Y-85054380D01*
X159976190Y-85054380D01*
X160071428Y-85006761D01*
X160119047Y-84959142D01*
X160166666Y-84863904D01*
X160166666Y-84625809D01*
X160119047Y-84530571D01*
X160071428Y-84482952D01*
X159976190Y-84435333D01*
X159785714Y-84435333D01*
X159690476Y-84482952D01*
X159642857Y-84530571D01*
X159595238Y-84625809D01*
G04 #@! TO.C,J7*
X203166666Y-84054380D02*
X203166666Y-84768666D01*
X203119047Y-84911523D01*
X203023809Y-85006761D01*
X202880952Y-85054380D01*
X202785714Y-85054380D01*
X203547619Y-84054380D02*
X204214285Y-84054380D01*
X203785714Y-85054380D01*
G04 #@! TO.C,J8*
X181166666Y-84054380D02*
X181166666Y-84768666D01*
X181119047Y-84911523D01*
X181023809Y-85006761D01*
X180880952Y-85054380D01*
X180785714Y-85054380D01*
X181785714Y-84482952D02*
X181690476Y-84435333D01*
X181642857Y-84387714D01*
X181595238Y-84292476D01*
X181595238Y-84244857D01*
X181642857Y-84149619D01*
X181690476Y-84102000D01*
X181785714Y-84054380D01*
X181976190Y-84054380D01*
X182071428Y-84102000D01*
X182119047Y-84149619D01*
X182166666Y-84244857D01*
X182166666Y-84292476D01*
X182119047Y-84387714D01*
X182071428Y-84435333D01*
X181976190Y-84482952D01*
X181785714Y-84482952D01*
X181690476Y-84530571D01*
X181642857Y-84578190D01*
X181595238Y-84673428D01*
X181595238Y-84863904D01*
X181642857Y-84959142D01*
X181690476Y-85006761D01*
X181785714Y-85054380D01*
X181976190Y-85054380D01*
X182071428Y-85006761D01*
X182119047Y-84959142D01*
X182166666Y-84863904D01*
X182166666Y-84673428D01*
X182119047Y-84578190D01*
X182071428Y-84530571D01*
X181976190Y-84482952D01*
G04 #@! TO.C,Q1*
X153904761Y-88097619D02*
X153809523Y-88050000D01*
X153714285Y-87954761D01*
X153571428Y-87811904D01*
X153476190Y-87764285D01*
X153380952Y-87764285D01*
X153428571Y-88002380D02*
X153333333Y-87954761D01*
X153238095Y-87859523D01*
X153190476Y-87669047D01*
X153190476Y-87335714D01*
X153238095Y-87145238D01*
X153333333Y-87050000D01*
X153428571Y-87002380D01*
X153619047Y-87002380D01*
X153714285Y-87050000D01*
X153809523Y-87145238D01*
X153857142Y-87335714D01*
X153857142Y-87669047D01*
X153809523Y-87859523D01*
X153714285Y-87954761D01*
X153619047Y-88002380D01*
X153428571Y-88002380D01*
X154809523Y-88002380D02*
X154238095Y-88002380D01*
X154523809Y-88002380D02*
X154523809Y-87002380D01*
X154428571Y-87145238D01*
X154333333Y-87240476D01*
X154238095Y-87288095D01*
X152247619Y-84235714D02*
X152209523Y-84273809D01*
X152095238Y-84311904D01*
X152019047Y-84311904D01*
X151904761Y-84273809D01*
X151828571Y-84197619D01*
X151790476Y-84121428D01*
X151752380Y-83969047D01*
X151752380Y-83854761D01*
X151790476Y-83702380D01*
X151828571Y-83626190D01*
X151904761Y-83550000D01*
X152019047Y-83511904D01*
X152095238Y-83511904D01*
X152209523Y-83550000D01*
X152247619Y-83588095D01*
X155778571Y-83892857D02*
X156045238Y-83892857D01*
X156159523Y-84311904D02*
X155778571Y-84311904D01*
X155778571Y-83511904D01*
X156159523Y-83511904D01*
G04 #@! TO.C,Q2*
X197904761Y-88097619D02*
X197809523Y-88050000D01*
X197714285Y-87954761D01*
X197571428Y-87811904D01*
X197476190Y-87764285D01*
X197380952Y-87764285D01*
X197428571Y-88002380D02*
X197333333Y-87954761D01*
X197238095Y-87859523D01*
X197190476Y-87669047D01*
X197190476Y-87335714D01*
X197238095Y-87145238D01*
X197333333Y-87050000D01*
X197428571Y-87002380D01*
X197619047Y-87002380D01*
X197714285Y-87050000D01*
X197809523Y-87145238D01*
X197857142Y-87335714D01*
X197857142Y-87669047D01*
X197809523Y-87859523D01*
X197714285Y-87954761D01*
X197619047Y-88002380D01*
X197428571Y-88002380D01*
X198238095Y-87097619D02*
X198285714Y-87050000D01*
X198380952Y-87002380D01*
X198619047Y-87002380D01*
X198714285Y-87050000D01*
X198761904Y-87097619D01*
X198809523Y-87192857D01*
X198809523Y-87288095D01*
X198761904Y-87430952D01*
X198190476Y-88002380D01*
X198809523Y-88002380D01*
X199778571Y-83892857D02*
X200045238Y-83892857D01*
X200159523Y-84311904D02*
X199778571Y-84311904D01*
X199778571Y-83511904D01*
X200159523Y-83511904D01*
X196247619Y-84235714D02*
X196209523Y-84273809D01*
X196095238Y-84311904D01*
X196019047Y-84311904D01*
X195904761Y-84273809D01*
X195828571Y-84197619D01*
X195790476Y-84121428D01*
X195752380Y-83969047D01*
X195752380Y-83854761D01*
X195790476Y-83702380D01*
X195828571Y-83626190D01*
X195904761Y-83550000D01*
X196019047Y-83511904D01*
X196095238Y-83511904D01*
X196209523Y-83550000D01*
X196247619Y-83588095D01*
G04 #@! TO.C,Q3*
X175904761Y-88097619D02*
X175809523Y-88050000D01*
X175714285Y-87954761D01*
X175571428Y-87811904D01*
X175476190Y-87764285D01*
X175380952Y-87764285D01*
X175428571Y-88002380D02*
X175333333Y-87954761D01*
X175238095Y-87859523D01*
X175190476Y-87669047D01*
X175190476Y-87335714D01*
X175238095Y-87145238D01*
X175333333Y-87050000D01*
X175428571Y-87002380D01*
X175619047Y-87002380D01*
X175714285Y-87050000D01*
X175809523Y-87145238D01*
X175857142Y-87335714D01*
X175857142Y-87669047D01*
X175809523Y-87859523D01*
X175714285Y-87954761D01*
X175619047Y-88002380D01*
X175428571Y-88002380D01*
X176190476Y-87002380D02*
X176809523Y-87002380D01*
X176476190Y-87383333D01*
X176619047Y-87383333D01*
X176714285Y-87430952D01*
X176761904Y-87478571D01*
X176809523Y-87573809D01*
X176809523Y-87811904D01*
X176761904Y-87907142D01*
X176714285Y-87954761D01*
X176619047Y-88002380D01*
X176333333Y-88002380D01*
X176238095Y-87954761D01*
X176190476Y-87907142D01*
X174247619Y-84235714D02*
X174209523Y-84273809D01*
X174095238Y-84311904D01*
X174019047Y-84311904D01*
X173904761Y-84273809D01*
X173828571Y-84197619D01*
X173790476Y-84121428D01*
X173752380Y-83969047D01*
X173752380Y-83854761D01*
X173790476Y-83702380D01*
X173828571Y-83626190D01*
X173904761Y-83550000D01*
X174019047Y-83511904D01*
X174095238Y-83511904D01*
X174209523Y-83550000D01*
X174247619Y-83588095D01*
X177778571Y-83892857D02*
X178045238Y-83892857D01*
X178159523Y-84311904D02*
X177778571Y-84311904D01*
X177778571Y-83511904D01*
X178159523Y-83511904D01*
G04 #@! TD*
M02*
