G04 #@! TF.GenerationSoftware,KiCad,Pcbnew,5.0.2-bee76a0~70~ubuntu18.04.1*
G04 #@! TF.CreationDate,2019-01-18T20:11:53+01:00*
G04 #@! TF.ProjectId,module_mockup,6d6f6475-6c65-45f6-9d6f-636b75702e6b,rev?*
G04 #@! TF.SameCoordinates,Original*
G04 #@! TF.FileFunction,Paste,Top*
G04 #@! TF.FilePolarity,Positive*
%FSLAX46Y46*%
G04 Gerber Fmt 4.6, Leading zero omitted, Abs format (unit mm)*
G04 Created by KiCad (PCBNEW 5.0.2-bee76a0~70~ubuntu18.04.1) date Fri 18 Jan 2019 20:11:53 CET*
%MOMM*%
%LPD*%
G01*
G04 APERTURE LIST*
%ADD10R,2.000000X0.400000*%
%ADD11R,0.900000X0.800000*%
%ADD12R,1.000000X1.400000*%
G04 APERTURE END LIST*
D10*
G04 #@! TO.C,J1*
X92100000Y-73250000D03*
X92100000Y-72750000D03*
X92100000Y-72250000D03*
X92100000Y-71750000D03*
X92100000Y-71250000D03*
X92100000Y-70750000D03*
X92100000Y-70250000D03*
X92100000Y-69750000D03*
X92100000Y-69250000D03*
X92100000Y-68750000D03*
G04 #@! TD*
D11*
G04 #@! TO.C,Q3*
X140000000Y-69500000D03*
D12*
X141600000Y-69000000D03*
X138400000Y-69000000D03*
G04 #@! TD*
D10*
G04 #@! TO.C,J5*
X136100000Y-73250000D03*
X136100000Y-72750000D03*
X136100000Y-72250000D03*
X136100000Y-71750000D03*
X136100000Y-71250000D03*
X136100000Y-70750000D03*
X136100000Y-70250000D03*
X136100000Y-69750000D03*
X136100000Y-69250000D03*
X136100000Y-68750000D03*
G04 #@! TD*
D11*
G04 #@! TO.C,D3*
X147800000Y-69500000D03*
D12*
X149400000Y-69000000D03*
X146200000Y-69000000D03*
G04 #@! TD*
D10*
G04 #@! TO.C,J6*
X152600000Y-73250000D03*
X152600000Y-72750000D03*
X152600000Y-72250000D03*
X152600000Y-71750000D03*
X152600000Y-71250000D03*
X152600000Y-70750000D03*
X152600000Y-70250000D03*
X152600000Y-69750000D03*
X152600000Y-69250000D03*
X152600000Y-68750000D03*
G04 #@! TD*
D12*
G04 #@! TO.C,D2*
X124200000Y-69000000D03*
X127400000Y-69000000D03*
D11*
X125800000Y-69500000D03*
G04 #@! TD*
D12*
G04 #@! TO.C,Q2*
X116400000Y-69000000D03*
X119600000Y-69000000D03*
D11*
X118000000Y-69500000D03*
G04 #@! TD*
D10*
G04 #@! TO.C,J4*
X130600000Y-68750000D03*
X130600000Y-69250000D03*
X130600000Y-69750000D03*
X130600000Y-70250000D03*
X130600000Y-70750000D03*
X130600000Y-71250000D03*
X130600000Y-71750000D03*
X130600000Y-72250000D03*
X130600000Y-72750000D03*
X130600000Y-73250000D03*
G04 #@! TD*
G04 #@! TO.C,J3*
X114100000Y-68750000D03*
X114100000Y-69250000D03*
X114100000Y-69750000D03*
X114100000Y-70250000D03*
X114100000Y-70750000D03*
X114100000Y-71250000D03*
X114100000Y-71750000D03*
X114100000Y-72250000D03*
X114100000Y-72750000D03*
X114100000Y-73250000D03*
G04 #@! TD*
D11*
G04 #@! TO.C,D1*
X103800000Y-69500000D03*
D12*
X105400000Y-69000000D03*
X102200000Y-69000000D03*
G04 #@! TD*
D11*
G04 #@! TO.C,Q1*
X96000000Y-69500000D03*
D12*
X97600000Y-69000000D03*
X94400000Y-69000000D03*
G04 #@! TD*
D10*
G04 #@! TO.C,J2*
X108600000Y-73250000D03*
X108600000Y-72750000D03*
X108600000Y-72250000D03*
X108600000Y-71750000D03*
X108600000Y-71250000D03*
X108600000Y-70750000D03*
X108600000Y-70250000D03*
X108600000Y-69750000D03*
X108600000Y-69250000D03*
X108600000Y-68750000D03*
G04 #@! TD*
M02*
