G04 #@! TF.GenerationSoftware,KiCad,Pcbnew,5.0.2-bee76a0~70~ubuntu18.04.1*
G04 #@! TF.CreationDate,2019-01-18T20:11:53+01:00*
G04 #@! TF.ProjectId,module_mockup,6d6f6475-6c65-45f6-9d6f-636b75702e6b,rev?*
G04 #@! TF.SameCoordinates,Original*
G04 #@! TF.FileFunction,Copper,L1,Top*
G04 #@! TF.FilePolarity,Positive*
%FSLAX46Y46*%
G04 Gerber Fmt 4.6, Leading zero omitted, Abs format (unit mm)*
G04 Created by KiCad (PCBNEW 5.0.2-bee76a0~70~ubuntu18.04.1) date Fri 18 Jan 2019 20:11:53 CET*
%MOMM*%
%LPD*%
G01*
G04 APERTURE LIST*
G04 #@! TA.AperFunction,SMDPad,CuDef*
%ADD10R,2.000000X0.400000*%
G04 #@! TD*
G04 #@! TA.AperFunction,SMDPad,CuDef*
%ADD11R,0.900000X0.800000*%
G04 #@! TD*
G04 #@! TA.AperFunction,SMDPad,CuDef*
%ADD12R,1.000000X1.400000*%
G04 #@! TD*
G04 #@! TA.AperFunction,BGAPad,CuDef*
%ADD13C,1.000000*%
G04 #@! TD*
G04 #@! TA.AperFunction,Conductor*
%ADD14C,0.228600*%
G04 #@! TD*
G04 APERTURE END LIST*
D10*
G04 #@! TO.P,J1,10*
G04 #@! TO.N,N/C*
X92100000Y-73250000D03*
G04 #@! TO.P,J1,9*
X92100000Y-72750000D03*
G04 #@! TO.P,J1,8*
X92100000Y-72250000D03*
G04 #@! TO.P,J1,7*
X92100000Y-71750000D03*
G04 #@! TO.P,J1,6*
X92100000Y-71250000D03*
G04 #@! TO.P,J1,5*
X92100000Y-70750000D03*
G04 #@! TO.P,J1,4*
X92100000Y-70250000D03*
G04 #@! TO.P,J1,3*
X92100000Y-69750000D03*
G04 #@! TO.P,J1,2*
X92100000Y-69250000D03*
G04 #@! TO.P,J1,1*
G04 #@! TO.N,+5V*
X92100000Y-68750000D03*
G04 #@! TD*
D11*
G04 #@! TO.P,Q3,*
G04 #@! TO.N,*
X140000000Y-69500000D03*
D12*
G04 #@! TO.P,Q3,2*
G04 #@! TO.N,/Q3*
X141600000Y-69000000D03*
G04 #@! TO.P,Q3,1*
G04 #@! TO.N,+5V*
X138400000Y-69000000D03*
G04 #@! TD*
D10*
G04 #@! TO.P,J5,10*
G04 #@! TO.N,/Q1*
X136100000Y-73250000D03*
G04 #@! TO.P,J5,9*
G04 #@! TO.N,/D1*
X136100000Y-72750000D03*
G04 #@! TO.P,J5,8*
G04 #@! TO.N,/Q2*
X136100000Y-72250000D03*
G04 #@! TO.P,J5,7*
G04 #@! TO.N,/D2*
X136100000Y-71750000D03*
G04 #@! TO.P,J5,6*
G04 #@! TO.N,N/C*
X136100000Y-71250000D03*
G04 #@! TO.P,J5,5*
X136100000Y-70750000D03*
G04 #@! TO.P,J5,4*
X136100000Y-70250000D03*
G04 #@! TO.P,J5,3*
X136100000Y-69750000D03*
G04 #@! TO.P,J5,2*
X136100000Y-69250000D03*
G04 #@! TO.P,J5,1*
G04 #@! TO.N,+5V*
X136100000Y-68750000D03*
G04 #@! TD*
D11*
G04 #@! TO.P,D3,*
G04 #@! TO.N,*
X147800000Y-69500000D03*
D12*
G04 #@! TO.P,D3,2*
G04 #@! TO.N,+5V*
X149400000Y-69000000D03*
G04 #@! TO.P,D3,1*
G04 #@! TO.N,/D3*
X146200000Y-69000000D03*
G04 #@! TD*
D10*
G04 #@! TO.P,J6,10*
G04 #@! TO.N,/Q1*
X152600000Y-73250000D03*
G04 #@! TO.P,J6,9*
G04 #@! TO.N,/D1*
X152600000Y-72750000D03*
G04 #@! TO.P,J6,8*
G04 #@! TO.N,/Q2*
X152600000Y-72250000D03*
G04 #@! TO.P,J6,7*
G04 #@! TO.N,/D2*
X152600000Y-71750000D03*
G04 #@! TO.P,J6,6*
G04 #@! TO.N,/Q3*
X152600000Y-71250000D03*
G04 #@! TO.P,J6,5*
G04 #@! TO.N,/D3*
X152600000Y-70750000D03*
G04 #@! TO.P,J6,4*
G04 #@! TO.N,N/C*
X152600000Y-70250000D03*
G04 #@! TO.P,J6,3*
X152600000Y-69750000D03*
G04 #@! TO.P,J6,2*
X152600000Y-69250000D03*
G04 #@! TO.P,J6,1*
G04 #@! TO.N,+5V*
X152600000Y-68750000D03*
G04 #@! TD*
D12*
G04 #@! TO.P,D2,1*
G04 #@! TO.N,/D2*
X124200000Y-69000000D03*
G04 #@! TO.P,D2,2*
G04 #@! TO.N,+5V*
X127400000Y-69000000D03*
D11*
G04 #@! TO.P,D2,*
G04 #@! TO.N,*
X125800000Y-69500000D03*
G04 #@! TD*
D12*
G04 #@! TO.P,Q2,1*
G04 #@! TO.N,+5V*
X116400000Y-69000000D03*
G04 #@! TO.P,Q2,2*
G04 #@! TO.N,/Q2*
X119600000Y-69000000D03*
D11*
G04 #@! TO.P,Q2,*
G04 #@! TO.N,*
X118000000Y-69500000D03*
G04 #@! TD*
D10*
G04 #@! TO.P,J4,1*
G04 #@! TO.N,+5V*
X130600000Y-68750000D03*
G04 #@! TO.P,J4,2*
G04 #@! TO.N,N/C*
X130600000Y-69250000D03*
G04 #@! TO.P,J4,3*
X130600000Y-69750000D03*
G04 #@! TO.P,J4,4*
X130600000Y-70250000D03*
G04 #@! TO.P,J4,5*
X130600000Y-70750000D03*
G04 #@! TO.P,J4,6*
X130600000Y-71250000D03*
G04 #@! TO.P,J4,7*
G04 #@! TO.N,/D2*
X130600000Y-71750000D03*
G04 #@! TO.P,J4,8*
G04 #@! TO.N,/Q2*
X130600000Y-72250000D03*
G04 #@! TO.P,J4,9*
G04 #@! TO.N,/D1*
X130600000Y-72750000D03*
G04 #@! TO.P,J4,10*
G04 #@! TO.N,/Q1*
X130600000Y-73250000D03*
G04 #@! TD*
G04 #@! TO.P,J3,1*
G04 #@! TO.N,+5V*
X114100000Y-68750000D03*
G04 #@! TO.P,J3,2*
G04 #@! TO.N,N/C*
X114100000Y-69250000D03*
G04 #@! TO.P,J3,3*
X114100000Y-69750000D03*
G04 #@! TO.P,J3,4*
X114100000Y-70250000D03*
G04 #@! TO.P,J3,5*
X114100000Y-70750000D03*
G04 #@! TO.P,J3,6*
X114100000Y-71250000D03*
G04 #@! TO.P,J3,7*
X114100000Y-71750000D03*
G04 #@! TO.P,J3,8*
X114100000Y-72250000D03*
G04 #@! TO.P,J3,9*
G04 #@! TO.N,/D1*
X114100000Y-72750000D03*
G04 #@! TO.P,J3,10*
G04 #@! TO.N,/Q1*
X114100000Y-73250000D03*
G04 #@! TD*
D11*
G04 #@! TO.P,D1,*
G04 #@! TO.N,*
X103800000Y-69500000D03*
D12*
G04 #@! TO.P,D1,2*
G04 #@! TO.N,+5V*
X105400000Y-69000000D03*
G04 #@! TO.P,D1,1*
G04 #@! TO.N,/D1*
X102200000Y-69000000D03*
G04 #@! TD*
D11*
G04 #@! TO.P,Q1,*
G04 #@! TO.N,*
X96000000Y-69500000D03*
D12*
G04 #@! TO.P,Q1,2*
G04 #@! TO.N,/Q1*
X97600000Y-69000000D03*
G04 #@! TO.P,Q1,1*
G04 #@! TO.N,+5V*
X94400000Y-69000000D03*
G04 #@! TD*
D10*
G04 #@! TO.P,J2,10*
G04 #@! TO.N,/Q1*
X108600000Y-73250000D03*
G04 #@! TO.P,J2,9*
G04 #@! TO.N,/D1*
X108600000Y-72750000D03*
G04 #@! TO.P,J2,8*
G04 #@! TO.N,N/C*
X108600000Y-72250000D03*
G04 #@! TO.P,J2,7*
X108600000Y-71750000D03*
G04 #@! TO.P,J2,6*
X108600000Y-71250000D03*
G04 #@! TO.P,J2,5*
X108600000Y-70750000D03*
G04 #@! TO.P,J2,4*
X108600000Y-70250000D03*
G04 #@! TO.P,J2,3*
X108600000Y-69750000D03*
G04 #@! TO.P,J2,2*
X108600000Y-69250000D03*
G04 #@! TO.P,J2,1*
G04 #@! TO.N,+5V*
X108600000Y-68750000D03*
G04 #@! TD*
D13*
G04 #@! TO.P,TP1,1*
G04 #@! TO.N,+5V*
X94390000Y-71170000D03*
G04 #@! TD*
G04 #@! TO.P,TP2,1*
G04 #@! TO.N,+5V*
X105410000Y-71150000D03*
G04 #@! TD*
G04 #@! TO.P,TP3,1*
G04 #@! TO.N,+5V*
X116370000Y-70680000D03*
G04 #@! TD*
G04 #@! TO.P,TP4,1*
G04 #@! TO.N,+5V*
X127400000Y-70690000D03*
G04 #@! TD*
G04 #@! TO.P,TP5,1*
G04 #@! TO.N,+5V*
X138400000Y-70660000D03*
G04 #@! TD*
G04 #@! TO.P,TP6,1*
G04 #@! TO.N,+5V*
X150650000Y-69000000D03*
G04 #@! TD*
D14*
G04 #@! TO.N,+5V*
X94150000Y-68750000D02*
X94400000Y-69000000D01*
X92100000Y-68750000D02*
X94150000Y-68750000D01*
X149400000Y-69000000D02*
X150650000Y-69000000D01*
X150900000Y-68750000D02*
X152600000Y-68750000D01*
X150650000Y-69000000D02*
X150900000Y-68750000D01*
X138150000Y-68750000D02*
X138400000Y-69000000D01*
X136100000Y-68750000D02*
X138150000Y-68750000D01*
X138400000Y-69000000D02*
X138400000Y-70660000D01*
X94400000Y-71160000D02*
X94390000Y-71170000D01*
X94400000Y-69000000D02*
X94400000Y-71160000D01*
X105400000Y-71140000D02*
X105410000Y-71150000D01*
X105400000Y-69000000D02*
X105400000Y-71140000D01*
X107371400Y-68750000D02*
X108600000Y-68750000D01*
X106378600Y-68750000D02*
X107371400Y-68750000D01*
X106128600Y-69000000D02*
X106378600Y-68750000D01*
X105400000Y-69000000D02*
X106128600Y-69000000D01*
X116150000Y-68750000D02*
X116400000Y-69000000D01*
X114100000Y-68750000D02*
X116150000Y-68750000D01*
X127400000Y-70690000D02*
X127400000Y-69000000D01*
X128128600Y-69000000D02*
X128378600Y-68750000D01*
X129371400Y-68750000D02*
X130600000Y-68750000D01*
X128378600Y-68750000D02*
X129371400Y-68750000D01*
X127400000Y-69000000D02*
X128128600Y-69000000D01*
X116370000Y-69030000D02*
X116400000Y-69000000D01*
X116370000Y-70680000D02*
X116370000Y-69030000D01*
G04 #@! TO.N,/D1*
X136100000Y-72750000D02*
X152600000Y-72750000D01*
X107371400Y-72750000D02*
X108600000Y-72750000D01*
X105021400Y-72750000D02*
X107371400Y-72750000D01*
X102200000Y-69928600D02*
X105021400Y-72750000D01*
X102200000Y-69000000D02*
X102200000Y-69928600D01*
G04 #@! TO.N,/D2*
X136100000Y-71750000D02*
X152600000Y-71750000D01*
X126021400Y-71750000D02*
X129371400Y-71750000D01*
X129371400Y-71750000D02*
X130600000Y-71750000D01*
X124200000Y-69928600D02*
X126021400Y-71750000D01*
X124200000Y-69000000D02*
X124200000Y-69928600D01*
G04 #@! TO.N,/D3*
X151371400Y-70750000D02*
X152600000Y-70750000D01*
X146200000Y-69928600D02*
X147021400Y-70750000D01*
X147021400Y-70750000D02*
X151371400Y-70750000D01*
X146200000Y-69000000D02*
X146200000Y-69928600D01*
G04 #@! TO.N,/Q1*
X137328600Y-73250000D02*
X152600000Y-73250000D01*
X136100000Y-73250000D02*
X137328600Y-73250000D01*
X99103358Y-73250000D02*
X107371400Y-73250000D01*
X97600000Y-71746642D02*
X99103358Y-73250000D01*
X107371400Y-73250000D02*
X108600000Y-73250000D01*
X97600000Y-69000000D02*
X97600000Y-71746642D01*
G04 #@! TO.N,/Q2*
X136100000Y-72250000D02*
X152600000Y-72250000D01*
X129371400Y-72250000D02*
X130600000Y-72250000D01*
X119600000Y-69928600D02*
X121921400Y-72250000D01*
X121921400Y-72250000D02*
X129371400Y-72250000D01*
X119600000Y-69000000D02*
X119600000Y-69928600D01*
G04 #@! TO.N,/Q3*
X151371400Y-71250000D02*
X152600000Y-71250000D01*
X144578600Y-71250000D02*
X151371400Y-71250000D01*
X142328600Y-69000000D02*
X144578600Y-71250000D01*
X141600000Y-69000000D02*
X142328600Y-69000000D01*
G04 #@! TD*
M02*
