G04 #@! TF.GenerationSoftware,KiCad,Pcbnew,5.0.2-bee76a0~70~ubuntu18.04.1*
G04 #@! TF.CreationDate,2019-01-18T20:11:53+01:00*
G04 #@! TF.ProjectId,module_mockup,6d6f6475-6c65-45f6-9d6f-636b75702e6b,rev?*
G04 #@! TF.SameCoordinates,Original*
G04 #@! TF.FileFunction,Legend,Top*
G04 #@! TF.FilePolarity,Positive*
%FSLAX46Y46*%
G04 Gerber Fmt 4.6, Leading zero omitted, Abs format (unit mm)*
G04 Created by KiCad (PCBNEW 5.0.2-bee76a0~70~ubuntu18.04.1) date Fri 18 Jan 2019 20:11:53 CET*
%MOMM*%
%LPD*%
G01*
G04 APERTURE LIST*
%ADD10C,0.150000*%
%ADD11C,0.120000*%
G04 APERTURE END LIST*
D10*
G04 #@! TO.C,J1*
X93350000Y-73750000D02*
X92100000Y-73750000D01*
X93350000Y-72500000D02*
X93350000Y-73750000D01*
X92100000Y-68250000D02*
X93350000Y-68250000D01*
X93350000Y-68250000D02*
X92100000Y-68250000D01*
G04 #@! TO.C,Q3*
X137700000Y-69000000D02*
X137700000Y-69900000D01*
X137700000Y-69900000D02*
X138600000Y-69900000D01*
X138850000Y-68100000D02*
G75*
G02X141150000Y-68100000I1150000J-400000D01*
G01*
G04 #@! TO.C,J5*
X137350000Y-73750000D02*
X136100000Y-73750000D01*
X137350000Y-72500000D02*
X137350000Y-73750000D01*
X136100000Y-68250000D02*
X137350000Y-68250000D01*
X137350000Y-68250000D02*
X136100000Y-68250000D01*
G04 #@! TO.C,D3*
X145500000Y-69000000D02*
X145500000Y-69900000D01*
X145500000Y-69900000D02*
X146400000Y-69900000D01*
X146650000Y-68100000D02*
G75*
G02X148950000Y-68100000I1150000J-400000D01*
G01*
G04 #@! TO.C,J6*
X153850000Y-73750000D02*
X152600000Y-73750000D01*
X153850000Y-72500000D02*
X153850000Y-73750000D01*
X152600000Y-68250000D02*
X153850000Y-68250000D01*
X153850000Y-68250000D02*
X152600000Y-68250000D01*
G04 #@! TO.C,D2*
X124650000Y-68100000D02*
G75*
G02X126950000Y-68100000I1150000J-400000D01*
G01*
X123500000Y-69900000D02*
X124400000Y-69900000D01*
X123500000Y-69000000D02*
X123500000Y-69900000D01*
G04 #@! TO.C,Q2*
X116850000Y-68100000D02*
G75*
G02X119150000Y-68100000I1150000J-400000D01*
G01*
X115700000Y-69900000D02*
X116600000Y-69900000D01*
X115700000Y-69000000D02*
X115700000Y-69900000D01*
G04 #@! TO.C,J4*
X131850000Y-68250000D02*
X130600000Y-68250000D01*
X130600000Y-68250000D02*
X131850000Y-68250000D01*
X131850000Y-72500000D02*
X131850000Y-73750000D01*
X131850000Y-73750000D02*
X130600000Y-73750000D01*
G04 #@! TO.C,J3*
X115350000Y-68250000D02*
X114100000Y-68250000D01*
X114100000Y-68250000D02*
X115350000Y-68250000D01*
X115350000Y-72500000D02*
X115350000Y-73750000D01*
X115350000Y-73750000D02*
X114100000Y-73750000D01*
G04 #@! TO.C,D1*
X101500000Y-69000000D02*
X101500000Y-69900000D01*
X101500000Y-69900000D02*
X102400000Y-69900000D01*
X102650000Y-68100000D02*
G75*
G02X104950000Y-68100000I1150000J-400000D01*
G01*
G04 #@! TO.C,Q1*
X93700000Y-69000000D02*
X93700000Y-69900000D01*
X93700000Y-69900000D02*
X94600000Y-69900000D01*
X94850000Y-68100000D02*
G75*
G02X97150000Y-68100000I1150000J-400000D01*
G01*
G04 #@! TO.C,J2*
X109850000Y-73750000D02*
X108600000Y-73750000D01*
X109850000Y-72500000D02*
X109850000Y-73750000D01*
X108600000Y-68250000D02*
X109850000Y-68250000D01*
X109850000Y-68250000D02*
X108600000Y-68250000D01*
D11*
G04 #@! TO.C,TP1*
X95090000Y-71170000D02*
G75*
G03X95090000Y-71170000I-700000J0D01*
G01*
G04 #@! TO.C,TP2*
X106110000Y-71150000D02*
G75*
G03X106110000Y-71150000I-700000J0D01*
G01*
G04 #@! TO.C,TP3*
X117070000Y-70680000D02*
G75*
G03X117070000Y-70680000I-700000J0D01*
G01*
G04 #@! TO.C,TP4*
X128100000Y-70690000D02*
G75*
G03X128100000Y-70690000I-700000J0D01*
G01*
G04 #@! TO.C,TP5*
X139100000Y-70660000D02*
G75*
G03X139100000Y-70660000I-700000J0D01*
G01*
G04 #@! TO.C,TP6*
X151350000Y-69000000D02*
G75*
G03X151350000Y-69000000I-700000J0D01*
G01*
G04 #@! TO.C,Q3*
D10*
X138247619Y-67985714D02*
X138209523Y-68023809D01*
X138095238Y-68061904D01*
X138019047Y-68061904D01*
X137904761Y-68023809D01*
X137828571Y-67947619D01*
X137790476Y-67871428D01*
X137752380Y-67719047D01*
X137752380Y-67604761D01*
X137790476Y-67452380D01*
X137828571Y-67376190D01*
X137904761Y-67300000D01*
X138019047Y-67261904D01*
X138095238Y-67261904D01*
X138209523Y-67300000D01*
X138247619Y-67338095D01*
X141778571Y-67642857D02*
X142045238Y-67642857D01*
X142159523Y-68061904D02*
X141778571Y-68061904D01*
X141778571Y-67261904D01*
X142159523Y-67261904D01*
G04 #@! TO.C,D3*
X145540476Y-68061904D02*
X145540476Y-67261904D01*
X145997619Y-68061904D02*
X145654761Y-67604761D01*
X145997619Y-67261904D02*
X145540476Y-67719047D01*
X149509523Y-67833333D02*
X149890476Y-67833333D01*
X149433333Y-68061904D02*
X149700000Y-67261904D01*
X149966666Y-68061904D01*
G04 #@! TO.C,D2*
X127509523Y-67833333D02*
X127890476Y-67833333D01*
X127433333Y-68061904D02*
X127700000Y-67261904D01*
X127966666Y-68061904D01*
X123540476Y-68061904D02*
X123540476Y-67261904D01*
X123997619Y-68061904D02*
X123654761Y-67604761D01*
X123997619Y-67261904D02*
X123540476Y-67719047D01*
G04 #@! TO.C,Q2*
X119778571Y-67642857D02*
X120045238Y-67642857D01*
X120159523Y-68061904D02*
X119778571Y-68061904D01*
X119778571Y-67261904D01*
X120159523Y-67261904D01*
X116247619Y-67985714D02*
X116209523Y-68023809D01*
X116095238Y-68061904D01*
X116019047Y-68061904D01*
X115904761Y-68023809D01*
X115828571Y-67947619D01*
X115790476Y-67871428D01*
X115752380Y-67719047D01*
X115752380Y-67604761D01*
X115790476Y-67452380D01*
X115828571Y-67376190D01*
X115904761Y-67300000D01*
X116019047Y-67261904D01*
X116095238Y-67261904D01*
X116209523Y-67300000D01*
X116247619Y-67338095D01*
G04 #@! TO.C,D1*
X101540476Y-68061904D02*
X101540476Y-67261904D01*
X101997619Y-68061904D02*
X101654761Y-67604761D01*
X101997619Y-67261904D02*
X101540476Y-67719047D01*
X105509523Y-67833333D02*
X105890476Y-67833333D01*
X105433333Y-68061904D02*
X105700000Y-67261904D01*
X105966666Y-68061904D01*
G04 #@! TO.C,Q1*
X94247619Y-67985714D02*
X94209523Y-68023809D01*
X94095238Y-68061904D01*
X94019047Y-68061904D01*
X93904761Y-68023809D01*
X93828571Y-67947619D01*
X93790476Y-67871428D01*
X93752380Y-67719047D01*
X93752380Y-67604761D01*
X93790476Y-67452380D01*
X93828571Y-67376190D01*
X93904761Y-67300000D01*
X94019047Y-67261904D01*
X94095238Y-67261904D01*
X94209523Y-67300000D01*
X94247619Y-67338095D01*
X97778571Y-67642857D02*
X98045238Y-67642857D01*
X98159523Y-68061904D02*
X97778571Y-68061904D01*
X97778571Y-67261904D01*
X98159523Y-67261904D01*
G04 #@! TD*
M02*
